/* XPM */
static char *megatunix[] = {
/* columns rows colors chars-per-pixel */
"64 64 118 2",
"   c #000000",
".  c #080705",
"X  c #0A0906",
"o  c #0D0B09",
"O  c #110E0B",
"+  c #15110D",
"@  c #1A130E",
"#  c #161210",
"$  c #1D1611",
"%  c #1F1912",
"&  c #201710",
"*  c #251B14",
"=  c #291F15",
"-  c #221E18",
";  c #2A1E18",
":  c #2C2117",
">  c #262219",
",  c #2D2219",
"<  c #342417",
"1  c #3E2916",
"2  c #33251B",
"3  c #38271B",
"4  c #36291E",
"5  c #3B2B1E",
"6  c #2F2822",
"7  c #342C23",
"8  c #3D2D21",
"9  c #373126",
"0  c #3E3022",
"q  c #3C3529",
"w  c #412A15",
"e  c #4A2B17",
"r  c #422D1C",
"t  c #4C2E19",
"y  c #42311F",
"u  c #4D311B",
"i  c #503017",
"p  c #52331B",
"a  c #412F22",
"s  c #443224",
"d  c #4A3626",
"f  c #4D3826",
"g  c #473428",
"h  c #4A3728",
"j  c #413A2E",
"k  c #4D392A",
"l  c #523522",
"z  c #543B27",
"x  c #533D2B",
"c  c #583F2E",
"v  c #443E31",
"b  c #4C3E30",
"n  c #553F30",
"m  c #593F30",
"M  c #5D4026",
"N  c #55412D",
"B  c #59412E",
"V  c #4B4134",
"C  c #544432",
"Z  c #5A4331",
"A  c #574937",
"S  c #5E4935",
"D  c #554A3C",
"F  c #5A4A38",
"G  c #64492E",
"H  c #614734",
"J  c #624C37",
"K  c #624D3A",
"L  c #675134",
"P  c #685237",
"I  c #64503C",
"U  c #6A543E",
"Y  c #5F5743",
"T  c #625443",
"R  c #6C5640",
"E  c #6D5B45",
"W  c #61564A",
"Q  c #645B4B",
"!  c #6B5E4B",
"~  c #735D45",
"^  c #765F49",
"/  c #6E604C",
"(  c #7B6247",
")  c #75604A",
"_  c #7C654E",
"`  c #746453",
"'  c #796750",
"]  c #746955",
"[  c #7D6A53",
"{  c #746959",
"}  c #7B6D5A",
"|  c #816C55",
" . c #85725A",
".. c #8A765D",
"X. c #857662",
"o. c #887661",
"O. c #867B67",
"+. c #8B7C63",
"@. c #8C7E68",
"#. c #907D64",
"$. c #927E68",
"%. c #94846D",
"&. c #98856D",
"*. c #9B896F",
"=. c #948671",
"-. c #968973",
";. c #9C8B74",
":. c #9B8E79",
">. c #9C9079",
",. c #A08E76",
"<. c #A18F7B",
"1. c #A39075",
"2. c #A3947C",
"3. c #AA977B",
"4. c #A69983",
"5. c #A99B83",
"6. c #B09C83",
"7. c None",
/* pixels */
"7.7.7.7.7.7.7.7.7.7.7.7.7.7.7.7.7.7.7.7.7.7.7.7.7.7.7.7.7.7.7.7.7.7.7.7.7.7.7.7.7.7.7.7.7.7.7.7.7.7.7.7.7.7.7.7.7.7.7.7.7.7.7.7.",
"7.7.7.7.7.7.7.7.7.7.7.7.7.7.7.7.7.7.7.7.7.7.7.7.7.7.7.7.7.7.7.7.7.7.7.7.7.7.7.7.7.7.7.7.7.7.7.7.7.7.7.7.7.7.7.7.7.7.7.7.7.7.7.7.",
"7.7.7.7.7.7.7.7.7.7.7.7.7.7.7.7.7.7.7.7.7.7.7.7.7.7.7.7.7.7.7.7.7.7.7.7.7.7.7.7.7.7.7.7.7.7.7.7.7.7.7.7.7.7.7.7.7.7.7.7.7.7.7.7.",
"7.7.7.7.7.7.7.7.7.7.7.7.7.7.7.7.7.7.7.7.7.7.7.7.7.7.7.7.7.7.7.7.7.7.7.7.7.7.7.7.7.7.7.7.7.7.7.7.7.7.7.7.7.7.7.7.7.7.7.7.7.7.7.7.",
"7.7.7.7.7.7.7.7.7.7.7.7.7.7.7.7.7.7.7.7.7.7.7.7.7.7.7.7.7.7.7.7.7.7.7.7.7.7.7.7.7.7.7.7.7.7.7.7.7.7.7.7.7.7.7.7.7.7.7.7.7.7.7.7.",
"7.7.7.7.7.7.7.7.7.7.7.7.7.7.7.7.7.7.7.7.7.7.7.7.7.7.7.7.7.7.7.7.7.7.7.7.7.7.7.7.7.7.7.7.7.7.7.7.7.7.7.7.7.7.7.7.7.7.7.7.7.7.7.7.",
"7.7.7.7.7.7.7.7.7.7.7.7.7.7.7.7.7.7.7.7.7.7.7.7.7.7.7.7.7.7.7.7.7.7.7.7.7.7.7.7.7.7.7.7.7.7.7.7.7.7.7.7.7.7.7.7.7.7.7.7.7.7.7.7.",
"7.7.7.7.7.7.7.7.7.7.7.7.7.7.7.7.7.7.7.7.7.7.7.5.@.` ! +.7.7.7.7.7.7.7.7.7.7.7.7.7.7.7.7.7.7.7.7.7.7.7.7.7.7.7.7.7.7.7.7.7.7.7.7.",
"7.7.7.7.7.7.7.7.7.7.7.7.7.7.7.7.7.7.7.:.} T A x x x c B K o.7.7.7.7.7.7.7.7.7.7.7.7.7.7.7.7.7.7.7.7.7.7.7.7.7.7.7.7.7.7.7.7.7.7.",
"7.7.7.7.7.7.7.7.7.7.7.7.7.7.4.@./ F k h h k k x x x x c c N K  .7.7.7.7.7.7.7.7.7.7.7.7.7.7.7.7.7.7.7.7.7.7.7.7.7.7.7.7.7.7.7.7.",
"7.7.7.7.7.7.7.7.7.7.-.} T C g s s s g g h h h k x x x x n c c c J  .7.7.7.7.7.7.7.7.7.7.7.7.7.7.7.7.7.7.7.7.7.7.7.7.7.7.7.7.7.7.",
"7.7.7.7.7.4.O.! A k s s s s s s s s g g g d h k x x x x x x x c Z Z J [ 7.7.7.7.7.7.7.7.7.7.7.7.7.7.7.7.7.7.7.7.7.7.7.7.7.7.7.7.",
"7.7.7.:.A s s s s s s s s s s s s s s s g g h h h k k x x x x c B B B Z J ' 5.7.7.7.7.7.7.7.7.7.7.7.7.7.7.7.7.7.7.7.7.7.7.7.7.7.",
"7.7.7.X.s 3 5 a a s a a s s s s s s s s s g g d h k k k x x x c c c Z Z B B Z ) 2.7.7.7.7.7.7.7.7.7.7.7.7.7.7.7.7.7.7.7.7.7.7.7.",
"7.7.7.%.x r 3 3 8 a a a s s s s s s s s s s g d h k k k x x x c c B Z Z B c c x Z E ;.7.7.7.7.7.7.7.7.7.7.7.7.7.7.7.7.7.7.7.7.7.",
"7.7.7.,.S f a 2 2 5 8 8 a a s s s s s s s s g h h h k k x x x c c Z Z m c c x x x x N R &.7.7.7.7.7.7.7.7.7.7.7.7.7.7.7.7.7.7.7.",
"7.7.7.2.K x k s 2 , 4 8 8 a a a a a s s s g g g h h h k k k x c c B B c c x x x x x x x B U %.7.7.7.7.7.7.7.7.7.7.7.7.7.7.7.7.7.",
"7.7.7.2.I x z k s 2 , 2 8 8 a a a a s s s g g g d d h h k k x c c c c c x x x k k x x x c c B U #.7.7.7.7.7.7.7.7.7.7.7.7.7.7.7.",
"7.7.7.2.I f z z f s 5 , 2 4 8 8 a s s s s g g g d h h h k x x x c N c c x x x k k k k x c B B c B K o.7.7.7.7.7.7.7.7.7.7.7.7.7.",
"7.7.7.2.R f f k h d s 5 : : 4 8 8 a s s s s g g d h h h k x x c c c c x x x k k k k x x x c c c c x x K ..7.7.7.7.7.7.7.7.7.7.7.",
"7.7.7.7.^ z f d d f d s 5 , : 2 8 8 a s s s g g d d h k z x x x c c c x x x k k k k x x x x c c x x x x x K ..7.7.7.7.7.7.7.7.7.",
"7.7.7.7.E x z f s g d d s 5 2 ; , 4 8 s s s s g g h h h k x x x c x x x x k k k k k x x x x x x x z x x x N B K @.7.7.7.7.7.7.7.",
"7.7.7.7.T g x z d s s d s s 5 2 = : 4 8 s s s g g h h k k x x x x x x k k k k k k k x x x x x z z z x x h s 4 C  .7.7.7.7.7.7.7.",
"7.7.7.7.7.+.J k f d s s g s s a 4 : : 2 8 s s g d d h k x x x x x x k k k k k k k k x x x x x x x k s 5 2 , , 8 ! 7.7.7.7.7.7.7.",
"7.7.7.7.7.7.;.R x f d s a s s s a 5 , : 2 8 s g g h f k x x x x z k k h h h k k k x x x x x x g 8 2 , , , , : , Q 7.7.7.7.7.7.7.",
"7.7.7.7.7.7.7.3.~ z f d s a s s s s 5 2 : , 8 s h h f x x x x x z k f f h h k k k x x k d 8 4 , : , , 2 2 2 , 2 { 7.7.7.7.7.7.7.",
"7.7.7.7.7.7.7.7.6.) x f d s 8 8 s s s 8 2 : , 4 s h k x x x x x k k f h h h h k k h a 2 : : 3 5 3 , , 2 2 2 2 8 X.7.7.7.7.7.7.7.",
"7.7.7.7.7.7.7.7.7.7.[ x d d s 5 8 s s s 8 4 , : 4 s k x x x x k k k k h h h g a 4 , : : : = 5 L P 8 , 2 2 2 , s %.7.7.7.7.7.7.7.",
"7.7.7.7.7.7.7.7.7.7.7.| x d d s 8 5 0 s s s 8 , : 2 s k x x k k k k h g a 4 , = = = = = = * * 0 E ) k 2 2 2 2 j >.7.7.7.7.7.7.7.",
"7.7.7.7.7.7.7.7.7.7.7.7.| N d d s 5 5 8 a s s 8 2 : , 8 h k k k h s 8 , ; = = = = = : : , 8 h N S |  .k , 2 2 D 5.7.7.7.7.7.7.7.",
"7.7.7.7.7.7.7.7.7.7.7.7.7...Z d d s r 5 8 a s a 8 2 : , 8 s s 8 2 : : : ; = = = = : 4 g B G M p w y h 4 : , 2 T 7.7.7.7.7.7.7.7.",
"7.7.7.7.7.7.7.7.7.7.7.7.7.7.#.S d d s a 5 5 a s 8 8 4 , 4 x x 5 , : : = = * * : 4 k N B l u i u r , * * * , C +.7.7.7.7.7.7.7.7.",
"7.7.7.7.7.7.7.7.7.7.7.7.7.7.7.&.J d d d s 8 8 s s 8 8 4 8 ~ ( h 3 : * * * , 0 x B z u t p p i 1 = & $ @ + % s +.7.7.7.7.7.7.7.7.",
"7.7.7.7.7.7.7.7.7.7.7.7.7.7.7.7.*.J f d d s 8 8 s s 8 8 4 s g 5 d 5 * , g B B l t t p p u < * $ $ @ @ + o o $ T 7.7.7.7.7.7.7.7.",
"7.7.7.7.7.7.7.7.7.7.7.7.7.7.7.7.7.1.U z d h g a 8 a s 8 4 , , : 3 S ~ J M p e e i p r : & @ @ + O o o o o O * k _ 7.7.7.7.7.7.7.",
"7.7.7.7.7.7.7.7.7.7.7.7.7.7.7.7.7.7.7.^ x h h d s 8 0 0 4 : * * = k H l t i p u 1 = & @ @ + O o o o o o - V C C  .7.7.7.7.7.7.7.",
"7.7.7.7.7.7.7.7.7.7.7.7.7.7.7.7.7.7.7.7._ x h h d s 8 8 4 : * < x G p t u r < * $ @ + O o o o o o o X X + q ] 5.7.7.7.7.7.7.7.7.",
"7.7.7.7.7.7.7.7.7.7.7.7.7.7.7.7.7.7.7.7.7.| N h d d s 8 4 , = 5 U J 3 = * $ $ # + O o o o o o X X o O > Y 2.7.7.7.7.7.7.7.7.7.7.",
"7.7.7.7.7.7.7.7.7.7.7.7.7.7.7.7.7.7.7.7.7.7. .B d d g s 8 , : : , * O + * % + O o o o o o X X X O , Q 2.7.7.7.7.7.7.7.7.7.7.7.7.",
"7.7.7.7.7.7.7.7.7.7.7.7.7.7.7.7.7.7.7.7.7.7.7. .N d g s 4 , ; * * $ + + - , $ o o o o X X X + 7 ! 4.7.7.7.7.7.7.7.7.7.7.7.7.7.7.",
"7.7.7.7.7.7.7.7.7.7.7.7.7.7.7.7.7.7.7.7.7.7.7.7...Z h g 8 ; * * $ + O O O $ - # o X X o + 9 ] 7.7.7.7.7.7.7.7.7.7.7.7.7.7.7.7.7.",
"7.7.7.7.7.7.7.7.7.7.7.7.7.7.7.7.7.7.7.7.7.7.7.7.7.$.F g 4 ; * $ + o o X . X o o . X + j X.7.7.7.7.7.7.7.7.7.7.7.7.7.7.7.7.7.7.7.",
"7.7.7.7.7.7.7.7.7.7.7.7.7.7.7.7.7.7.7.7.7.7.7.7.7.7.&.S s k s $ O o O o X . . o $ v O.7.7.7.7.7.7.7.7.7.7.7.7.7.7.7.7.7.7.7.7.7.",
"7.7.7.7.7.7.7.7.7.7.7.7.7.7.7.7.7.7.7.7.7.7.7.7.7.7.7.&.b 4 ; + + $ @ o X o > D =.7.7.7.7.7.7.7.7.7.7.7.7.7.7.7.7.7.7.7.7.7.7.7.",
"7.7.7.7.7.7.7.7.7.7.7.7.7.7.7.7.7.7.7.7.7.7.7.7.7.7.7.7.! * @ + - W ` 7 , T 2.7.7.7.7.7.7.7.7.7.7.7.7.7.7.7.7.7.7.7.7.7.7.7.7.7.",
"7.7.7.7.7.7.7.7.7.7.7.7.7.7.7.7.7.7.7.7.7.7.7.7.7.7.7.7.<.k @ O + 6 D } 7.7.7.7.7.7.7.7.7.7.7.7.7.7.7.7.7.7.7.7.7.7.7.7.7.7.7.7.",
"7.7.7.7.7.7.7.7.7.7.7.7.7.7.7.7.7.7.7.7.7.7.7.7.7.7.7.7.7.=.b , j ] 7.7.7.7.7.7.7.7.7.7.7.7.7.7.7.7.7.7.7.7.7.7.7.7.7.7.7.7.7.7.",
"7.7.7.7.7.7.7.7.7.7.7.7.7.7.7.7.7.7.7.7.7.7.7.7.7.7.7.7.7.7.7.7.7.7.7.7.7.7.7.7.7.7.7.7.7.7.7.7.7.7.7.7.7.7.7.7.7.7.7.7.7.7.7.7.",
"    7.7.7.7.    7.7.7.7.7.7.7.7.7.7.7.7.7.7.7.7.7.7.7.7.7.7.7.                7.7.7.7.7.7.7.7.7.7.7.7.7.7.7.7.  7.7.7.7.7.7.7.7.",
"      7.7.7.    7.7.7.7.7.7.7.7.7.7.7.7.7.7.7.7.7.7.7.7.7.7.7.7.7.7.    7.7.7.7.7.7.7.7.7.7.7.7.7.7.7.7.7.7.7.7.7.7.7.7.7.7.7.7.",
"      7.7.7.    7.7.7.        7.7.7.      7.  7.7.7.      7.7.7.7.7.    7.7.7.  7.7.7.7.  7.7.  7.      7.7.7.  7.7.  7.7.7.  7.",
"    7.  7.  7.  7.7.    7.7.    7.    7.7.    7.7.7.7.7.7.  7.7.7.7.    7.7.7.  7.7.7.7.  7.7.    7.7.    7.7.  7.7.7.  7.7.  7.",
"    7.  7.  7.  7.7.  7.7.7.7.  7.  7.7.7.7.  7.7.7.7.7.7.  7.7.7.7.    7.7.7.  7.7.7.7.  7.7.  7.7.7.7.  7.7.  7.7.7.7.    7.7.",
"    7.      7.  7.7.            7.  7.7.7.7.  7.7.7.          7.7.7.    7.7.7.  7.7.7.7.  7.7.  7.7.7.7.  7.7.  7.7.7.7.    7.7.",
"    7.7.  7.7.  7.7.  7.7.7.7.7.7.  7.7.7.7.  7.7.  7.7.7.    7.7.7.    7.7.7.  7.7.7.7.  7.7.  7.7.7.7.  7.7.  7.7.7.      7.7.",
"    7.7.7.7.7.  7.7.    7.7.7.7.7.    7.7.    7.7.  7.7.7.    7.7.7.    7.7.7.    7.7.    7.7.  7.7.7.7.  7.7.  7.7.7.  7.7.  7.",
"    7.7.7.7.7.  7.7.7.        7.7.7.      7.  7.7.7.          7.7.7.    7.7.7.7.      7.  7.7.  7.7.7.7.  7.7.  7.7.  7.7.7.    ",
"7.7.7.7.7.7.7.7.7.7.7.7.7.7.7.7.7.7.7.7.7.7.  7.7.7.7.7.7.7.7.7.7.7.7.7.7.7.7.7.7.7.7.7.7.7.7.7.7.7.7.7.7.7.7.7.7.7.7.7.7.7.7.7.",
"7.7.7.7.7.7.7.7.7.7.7.7.7.7.7.7.7.7.7.7.7.  7.7.7.7.7.7.7.7.7.7.7.7.7.7.7.7.7.7.7.7.7.7.7.7.7.7.7.7.7.7.7.7.7.7.7.7.7.7.7.7.7.7.",
"7.7.7.7.7.7.7.7.7.7.7.7.7.7.7.7.7.7.        7.7.7.7.7.7.7.7.7.7.7.7.7.7.7.7.7.7.7.7.7.7.7.7.7.7.7.7.7.7.7.7.7.7.7.7.7.7.7.7.7.7.",
"7.7.7.7.7.7.7.7.7.7.7.7.7.7.7.7.7.7.7.7.7.7.7.7.7.7.7.7.7.7.7.7.7.7.7.7.7.7.7.7.7.7.7.7.7.7.7.7.7.7.7.7.7.7.7.7.7.7.7.7.7.7.7.7.",
"7.7.7.7.7.7.7.7.7.7.7.7.7.7.7.7.7.7.7.7.7.7.7.7.7.7.7.7.7.7.7.7.7.7.7.7.7.7.7.7.7.7.7.7.7.7.7.7.7.7.7.7.7.7.7.7.7.7.7.7.7.7.7.7.",
"7.7.7.7.7.7.7.7.7.7.7.7.7.7.7.7.7.7.7.7.7.7.7.7.7.7.7.7.7.7.7.7.7.7.7.7.7.7.7.7.7.7.7.7.7.7.7.7.7.7.7.7.7.7.7.7.7.7.7.7.7.7.7.7.",
"7.7.7.7.7.7.7.7.7.7.7.7.7.7.7.7.7.7.7.7.7.7.7.7.7.7.7.7.7.7.7.7.7.7.7.7.7.7.7.7.7.7.7.7.7.7.7.7.7.7.7.7.7.7.7.7.7.7.7.7.7.7.7.7."
};
